<?xml version="1.0" encoding="UTF-8"?>
<svg xmlns="http://www.w3.org/2000/svg" viewBox="0 0 640 640" role="img" aria-label="Muối Đi Học">
                    <path fill="#07A99E" opacity="1.000000" stroke="none" 
                        d="
                    M502.225861,382.760895 
                        C501.992950,385.699554 501.557343,388.638184 501.557465,391.576843 
                        C501.559662,438.150574 473.002625,479.927307 429.006836,495.082581 
                        C386.581818,509.696777 347.867584,501.862885 314.338715,471.671631 
                        C303.585632,461.988922 293.771027,451.266571 283.454193,441.093719 
                        C282.096008,439.754486 280.303711,438.855530 278.338928,437.394989 
                        C277.006287,435.556305 276.262177,433.864868 275.052582,432.629089 
                        C268.297760,425.728241 261.380463,418.986450 254.621155,412.089905 
                        C250.914627,408.308228 247.409561,404.329102 243.845261,400.115204 
                        C245.611801,398.000061 247.340317,396.202423 249.082794,394.418396 
                        C258.720123,384.551392 268.360901,374.687744 278.338867,364.907715 
                        C279.140808,364.987244 279.604370,364.981995 280.264099,365.245972 
                        C302.853912,387.864014 325.278870,410.181580 347.628967,432.573853 
                        C359.947998,444.916168 374.910400,451.289581 392.163544,450.561584 
                        C417.396362,449.496918 436.207550,437.292938 445.740997,413.790741 
                        C455.525604,389.669403 450.835144,367.367035 432.749725,348.339661 
                        C425.064301,340.253906 417.002563,332.526276 409.129150,324.618652 
                        C394.094757,309.519012 379.072784,294.407074 364.186035,279.050476 
                        C364.351196,278.611298 364.375977,278.421906 364.720032,278.147095 
                        C373.059875,270.193665 381.025208,262.268188 389.126007,254.483688 
                        C392.786407,250.966217 396.716370,247.729218 400.839233,244.623108 
                        C407.626373,251.022293 414.098358,257.163300 420.609009,263.327484 
                        C420.647675,263.350647 420.692963,263.428589 420.768555,263.730499 
                        C421.922577,264.978760 423.000977,265.925110 424.240417,267.123535 
                        C425.146698,268.034363 425.891937,268.693115 426.711731,269.584686 
                        C426.977600,270.115814 427.639771,270.315674 427.639771,270.315674 
                        C427.675507,270.337524 427.713837,270.411987 427.771851,270.633026 
                        C428.006134,271.138611 428.261627,271.284210 428.631409,271.312744 
                        C428.666504,271.334686 428.698303,271.411041 428.774139,271.730042 
                        C434.591003,277.651215 440.332031,283.253448 446.198944,288.997192 
                        C446.324829,289.138733 446.647095,289.337952 446.721924,289.572693 
                        C446.989563,290.108307 447.264404,290.268005 447.655518,290.304993 
                        C447.689758,290.323395 447.721283,290.394531 447.784027,290.619324 
                        C448.033722,291.130310 448.298096,291.273071 448.671570,291.286804 
                        C448.703247,291.301208 448.720001,291.368713 448.792847,291.690338 
                        C455.131866,298.130524 461.398041,304.249084 467.813751,310.593018 
                        C468.359711,311.181610 468.756104,311.544830 469.218872,312.237122 
                        C471.713562,315.142792 474.141815,317.719421 476.606781,320.309937 
                        C476.643494,320.323822 476.660767,320.400421 476.720123,320.729248 
                        C478.385376,323.129272 479.991302,325.200470 481.630737,327.282166 
                        C481.664307,327.292664 481.666260,327.362946 481.690979,327.640625 
                        C482.089569,328.264832 482.463470,328.611298 483.019928,329.073120 
                        C483.202484,329.188507 483.623718,329.283997 483.717712,329.633484 
                        C484.444672,331.333252 485.142700,332.657288 485.700287,334.038025 
                        C489.853943,344.323120 494.277954,354.513336 497.995605,364.954620 
                        C500.029846,370.667816 500.855316,376.811401 502.225861,382.760895 
                    z"/>
                    <path fill="#F1A317" opacity="1.000000" stroke="none" 
                        d="
                    M400.524017,244.364960 
                        C396.716370,247.729218 392.786407,250.966217 389.126007,254.483688 
                        C381.025208,262.268188 373.059875,270.193665 364.383972,277.977570 
                        C362.096466,276.485321 360.368561,275.173126 358.846588,273.654541 
                        C337.974396,252.829330 317.093384,232.012650 296.290436,211.118347 
                        C276.152740,190.892258 247.407288,186.676971 222.483215,200.419785 
                        C188.749435,219.020187 181.599014,266.150238 208.383179,293.792755 
                        C218.438644,304.170502 228.628006,314.420013 238.843521,324.640839 
                        C248.470123,334.272491 258.278442,343.723022 267.867645,353.391205 
                        C271.447815,357.000885 274.634430,361.000885 278.000488,364.822906 
                        C268.360901,374.687744 258.720123,384.551392 249.082794,394.418396 
                        C247.340317,396.202423 245.611801,398.000061 243.641800,400.080505 
                        C243.137497,400.431396 242.870300,400.501038 242.513153,400.245300 
                        C236.291428,393.816101 230.148041,387.733734 224.034592,381.621429 
                        C206.853897,364.443939 189.607361,347.331177 172.562988,330.019379 
                        C167.840820,325.223114 163.733597,319.821442 159.272812,314.342285 
                        C158.605774,312.623749 158.126404,311.194550 157.396347,309.907532 
                        C151.042007,298.705261 146.226517,286.943176 143.908340,274.204712 
                        C143.084518,269.677856 141.871078,265.221924 140.835495,260.733612 
                        C141.230484,253.995834 141.354874,247.229324 142.067230,240.525269 
                        C145.180832,211.222656 157.627884,186.508484 180.548859,167.981003 
                        C218.158661,137.580231 259.619446,133.609024 302.979797,153.825928 
                        C313.724762,158.835846 323.077179,167.329483 332.167969,175.255966 
                        C342.055389,183.877045 350.877563,193.717773 360.206451,202.984207 
                        C361.351227,204.121353 362.756683,204.996033 364.472717,206.361938 
                        C365.421906,207.734741 365.732391,208.942581 366.489441,209.709717 
                        C374.490723,217.817429 382.483887,225.936615 390.656342,233.870224 
                        C393.777466,236.900101 397.354095,239.460754 400.712952,242.474365 
                        C400.586151,243.036057 400.606232,243.350006 400.648041,243.814117 
                        C400.533051,243.972916 400.524017,244.364960 400.524017,244.364960 
                    z"/>
                    <path fill="#FA067B" opacity="1.000000" stroke="none" 
                        d="
                    M400.723145,242.235260 
                        C397.354095,239.460754 393.777466,236.900101 390.656342,233.870224 
                        C382.483887,225.936615 374.490723,217.817429 366.489441,209.709717 
                        C365.732391,208.942581 365.421906,207.734741 364.812195,206.384171 
                        C376.869965,193.917206 388.346588,181.018250 401.301208,169.830750 
                        C434.186188,141.431595 472.214783,133.994598 512.904114,148.435455 
                        C552.736328,162.572098 577.092163,191.796173 584.536987,233.632278 
                        C591.206543,271.111755 580.550049,303.913391 554.026550,331.216553 
                        C537.193359,348.544586 519.822815,365.350708 502.459564,382.575897 
                        C500.855316,376.811401 500.029846,370.667816 497.995605,364.954620 
                        C494.277954,354.513336 489.853943,344.323120 485.700287,334.038025 
                        C485.142700,332.657288 484.444672,331.333252 483.977844,329.364990 
                        C495.063782,317.754852 506.063507,306.840759 516.881348,295.749237 
                        C528.307434,284.034149 534.419495,269.842133 534.773987,253.524384 
                        C535.313416,228.695099 521.028687,207.126373 498.345001,197.629181 
                        C475.940887,188.249039 449.969391,193.409195 432.685913,210.613907 
                        C422.064301,221.187164 411.379547,231.696960 400.723145,242.235260 
                    z"/>
                    <path fill="#0871B6" opacity="1.000000" stroke="none" 
                        d="
                    M140.587982,260.964600 
                        C141.871078,265.221924 143.084518,269.677856 143.908340,274.204712 
                        C146.226517,286.943176 151.042007,298.705261 157.396347,309.907532 
                        C158.126404,311.194550 158.605774,312.623749 159.004425,314.602539 
                        C147.425949,326.654572 135.815964,337.874268 124.711433,349.573730 
                        C102.977051,372.472534 102.798851,409.264313 124.002617,431.645660 
                        C146.276199,455.156128 182.582382,457.502411 206.887039,436.109253 
                        C219.469452,425.034088 230.741241,412.469971 242.605148,400.578522 
                        C242.870300,400.501038 243.137497,400.431396 243.610199,400.404297 
                        C247.409561,404.329102 250.914627,408.308228 254.621155,412.089905 
                        C261.380463,418.986450 268.297760,425.728241 275.052582,432.629089 
                        C276.262177,433.864868 277.006287,435.556305 277.964966,437.382751 
                        C263.673248,451.649536 250.495300,466.990112 234.888321,479.234619 
                        C181.253754,521.313904 101.118835,503.242706 69.528595,442.861542 
                        C46.762482,399.346649 54.496887,347.418335 89.107491,312.407471 
                        C106.082893,295.235748 123.256554,278.260040 140.587982,260.964600 
                    z"/>
                    <path fill="#F8087B" opacity="1.000000" stroke="none" 
                        d="
                    M386.059509,135.058701 
                        C378.740387,142.556320 371.663788,149.796585 364.761383,156.858627 
                        C351.399658,143.326279 338.602692,130.365906 326.250366,117.855888 
                        C338.440521,105.644135 351.301483,92.760429 363.899567,80.140045 
                        C375.983185,92.364838 388.783295,105.314514 402.179779,118.867493 
                        C397.450043,123.613960 391.876068,129.207657 386.059509,135.058701 
                    z"/>
                    <path fill="#0A71B5" opacity="1.000000" stroke="none" 
                        d="
                    M251.962189,538.038269 
                        C247.662155,534.122375 243.611664,530.456970 239.798569,527.006348 
                        C253.619080,513.151978 266.500122,500.239441 279.280518,487.427704 
                        C291.965118,500.235474 304.791931,513.186768 317.481049,525.999084 
                        C304.918701,538.512085 291.984222,551.395752 278.343872,564.982483 
                        C269.861786,556.318115 261.036743,547.303406 251.962189,538.038269 
                    z"/>
                    <path fill="#FDFEFE" opacity="1.000000" stroke="none" 
                        d="
                    M364.045654,279.300232 
                        C379.072784,294.407074 394.094757,309.519012 409.129150,324.618652 
                        C417.002563,332.526276 425.064301,340.253906 432.749725,348.339661 
                        C450.835144,367.367035 455.525604,389.669403 445.740997,413.790741 
                        C436.207550,437.292938 417.396362,449.496918 392.163544,450.561584 
                        C374.910400,451.289581 359.947998,444.916168 347.628967,432.573853 
                        C325.278870,410.181580 302.853912,387.864014 280.234131,364.872009 
                        C279.501282,363.086182 279.263702,361.681030 278.445526,360.842194 
                        C271.345734,353.563293 264.159149,346.368652 256.962769,339.184601 
                        C251.864151,334.094727 246.707626,329.062897 241.582153,323.999939 
                        C238.013077,320.474365 234.389877,317.000763 230.903275,313.395264 
                        C225.673599,307.987244 221.039459,301.875977 215.261719,297.152954 
                        C204.617233,288.451721 198.776520,277.089722 196.076141,264.194397 
                        C193.270370,250.795670 195.084320,237.809021 201.805115,225.429031 
                        C208.436111,213.214432 218.148682,204.927689 230.678665,199.561996 
                        C240.508163,195.352722 250.657593,193.873703 261.265564,195.917145 
                        C273.271057,198.229813 284.290955,202.451096 292.877625,211.603348 
                        C295.585175,214.489258 298.123413,217.544220 300.948334,220.307953 
                        C310.236237,229.394562 319.712952,238.289337 328.942535,247.434052 
                        C339.423492,257.818695 349.680786,268.429108 360.167206,278.808136 
                        C360.902283,279.535675 362.727417,279.161896 364.045654,279.300232 
                    z"/>
                    <path fill="#FCEDBD" opacity="1.000000" stroke="none" 
                        d="
                    M364.186035,279.050476 
                        C362.727417,279.161896 360.902283,279.535675 360.167206,278.808136 
                        C349.680786,268.429108 339.423492,257.818695 328.942535,247.434052 
                        C319.712952,238.289337 310.236237,229.394562 300.948334,220.307953 
                        C298.123413,217.544220 295.585175,214.489258 292.877625,211.603348 
                        C284.290955,202.451096 273.271057,198.229813 261.265564,195.917145 
                        C250.657593,193.873703 240.508163,195.352722 230.678665,199.561996 
                        C218.148682,204.927689 208.436111,213.214432 201.805115,225.429031 
                        C195.084320,237.809021 193.270370,250.795670 196.076141,264.194397 
                        C198.776520,277.089722 204.617233,288.451721 215.261719,297.152954 
                        C221.039459,301.875977 225.673599,307.987244 230.903275,313.395264 
                        C234.389877,317.000763 238.013077,320.474365 241.582153,323.999939 
                        C246.707626,329.062897 251.864151,334.094727 256.962769,339.184601 
                        C264.159149,346.368652 271.345734,353.563293 278.445526,360.842194 
                        C279.263702,361.681030 279.501282,363.086182 280.038025,364.602722 
                        C279.604370,364.981995 279.140808,364.987244 278.338867,364.907715 
                        C274.634430,361.000885 271.447815,357.000885 267.867645,353.391205 
                        C258.278442,343.723022 248.470123,334.272491 238.843521,324.640839 
                        C228.628006,314.420013 218.438644,304.170502 208.383179,293.792755 
                        C181.599014,266.150238 188.749435,219.020187 222.483215,200.419785 
                        C247.407288,186.676971 276.152740,190.892258 296.290436,211.118347 
                        C317.093384,232.012650 337.974396,252.829330 358.846588,273.654541 
                        C360.368561,275.173126 362.096466,276.485321 364.064697,278.063019 
                        C364.375977,278.421906 364.351196,278.611298 364.186035,279.050476 
                    z"/>
                    <path fill="#A4E7E3" opacity="1.000000" stroke="none" 
                        d="
                    M400.648041,243.814117 
                        C402.437805,244.598358 404.438263,245.222290 405.730011,246.540649 
                        C410.860901,251.777100 415.770447,257.230438 420.666138,262.953857 
                        C414.098358,257.163300 407.626373,251.022293 400.839233,244.623108 
                        C400.524017,244.364960 400.533051,243.972916 400.648041,243.814117 
                    z"/>
                    <path fill="#A4E7E3" opacity="1.000000" stroke="none" 
                        d="
                    M448.792847,291.690308 
                        C449.204407,291.360046 449.909180,291.136444 450.141052,291.374146 
                        C456.055481,297.436646 461.920380,303.547394 467.729065,310.008667 
                        C461.398041,304.249084 455.131866,298.130524 448.792847,291.690308 
                    z"/>
                    <path fill="#A4E7E3" opacity="1.000000" stroke="none" 
                        d="
                    M428.774139,271.730042 
                        C429.471558,271.553345 430.536835,271.419098 430.973450,271.880219 
                        C436.060486,277.252716 441.052765,282.714966 446.071594,288.504547 
                        C440.332031,283.253448 434.591003,277.651215 428.774139,271.730042 
                    z"/>
                    <path fill="#A4E7E3" opacity="1.000000" stroke="none" 
                        d="
                    M469.218872,312.237122 
                        C471.689240,314.471619 474.226013,317.035217 476.666412,319.947418 
                        C474.141815,317.719421 471.713562,315.142792 469.218872,312.237122 
                    z"/>
                    <path fill="#A4E7E3" opacity="1.000000" stroke="none" 
                        d="
                    M476.720123,320.729248 
                        C478.378387,322.448059 480.096039,324.495697 481.705444,326.907501 
                        C479.991302,325.200470 478.385376,323.129272 476.720123,320.729248 
                    z"/>
                    <path fill="#A4E7E3" opacity="1.000000" stroke="none" 
                        d="
                    M420.768555,263.730499 
                        C421.819031,264.335175 422.945129,265.241760 424.075317,266.509888 
                        C423.000977,265.925110 421.922577,264.978760 420.768555,263.730499 
                    z"/>
                    <path fill="#A4E7E3" opacity="1.000000" stroke="none" 
                        d="
                    M481.690979,327.640625 
                        C482.089569,327.696259 482.492920,328.029572 482.871826,328.660339 
                        C482.463470,328.611298 482.089569,328.264832 481.690979,327.640625 
                    z"/>
                    <path fill="#A4E7E3" opacity="1.000000" stroke="none" 
                        d="
                    M427.771851,270.633026 
                        C428.023499,270.523163 428.333191,270.634369 428.619598,271.018188 
                        C428.261627,271.284210 428.006134,271.138611 427.771851,270.633026 
                    z"/>
                    <path fill="#A4E7E3" opacity="1.000000" stroke="none" 
                        d="
                    M446.721924,289.572693 
                        C446.974365,289.463409 447.301636,289.588867 447.625061,290.000427 
                        C447.264404,290.268005 446.989563,290.108307 446.721924,289.572693 
                    z"/>
                    <path fill="#A4E7E3" opacity="1.000000" stroke="none" 
                        d="
                    M447.784027,290.619324 
                        C448.033051,290.505157 448.344849,290.615784 448.648254,290.999390 
                        C448.298096,291.273071 448.033722,291.130310 447.784027,290.619324 
                    z"/>
                    <path fill="#A4E7E3" opacity="1.000000" stroke="none" 
                        d="
                    M426.711731,269.584686 
                        C426.964142,269.475342 427.291107,269.598816 427.611053,270.008026 
                        C427.250183,270.274567 426.977600,270.115814 426.711731,269.584686 
                    z"/>
                    <path fill="#FCFDFC" opacity="1.000000" stroke="none" 
                        d="
                    M242.513153,400.245300 
                        C230.741241,412.469971 219.469452,425.034088 206.887039,436.109253 
                        C182.582382,457.502411 146.276199,455.156128 124.002617,431.645660 
                        C102.798851,409.264313 102.798851,372.472534 124.711433,349.573730 
                        C135.815964,337.874268 147.425949,326.654572 159.075851,314.957764 
                        C163.733597,319.821442 167.840820,325.223114 172.562988,330.019379 
                        C189.607361,347.331177 206.853897,364.443939 224.034592,381.621429 
                        C230.148041,387.733734 236.291428,393.816101 242.513153,400.245300 
                    z"/>
</svg>
